<svg width="22" height="20" viewBox="0 0 22 20" fill="none" xmlns="http://www.w3.org/2000/svg">
<path d="M17.669 3.27661H3.92073C3.78314 3.27661 3.65394 3.34298 3.57386 3.4549L0.0796856 8.3371C-0.0390583 8.50299 -0.0236671 8.72972 0.116329 8.87811L10.4846 19.8658C10.653 20.0442 10.9367 20.0442 11.1051 19.8658L21.4734 8.87811C21.6134 8.72972 21.6288 8.50299 21.5101 8.3371L18.0159 3.4549C17.9358 3.34298 17.8066 3.27661 17.669 3.27661Z" fill="#79FF79"/>
<path d="M21.5884 8.62271H14.0415C16.228 8.19273 18.0404 6.72032 18.9391 4.74414L21.5103 8.33695C21.5713 8.42225 21.5969 8.52375 21.5884 8.62271Z" fill="#29E088"/>
<path d="M21.5881 8.62256C21.5804 8.70913 21.5463 8.79317 21.4875 8.8627C21.4828 8.86785 21.478 8.87295 21.4734 8.87805L11.1049 19.8659C11.1041 19.8667 11.1028 19.868 11.1019 19.8689C11.0546 19.9183 10.9983 19.9537 10.9377 19.9751C10.907 19.9858 10.875 19.993 10.8425 19.9964C10.811 20.0007 10.7786 20.0007 10.747 19.9964C10.7146 19.993 10.6826 19.9858 10.6519 19.9751C10.5913 19.9537 10.535 19.9184 10.4876 19.8689C10.4868 19.868 10.4855 19.8667 10.4846 19.8659L0.116203 8.87805C0.111522 8.87295 0.106799 8.86781 0.102119 8.8627C0.0432529 8.79317 0.00913934 8.70917 0.00146484 8.62256H21.5881Z" fill="#0CC166"/>
<path d="M21.5884 8.62284C21.5807 8.70941 21.5466 8.79345 21.4877 8.86299C21.483 8.86809 21.4783 8.87324 21.4736 8.87834L11.1052 19.8662L11.1022 19.8691C11.0548 19.9187 10.9985 19.954 10.9379 19.9754C10.9072 19.986 10.8752 19.9933 10.8428 19.9967C10.8112 20.001 10.7788 20.001 10.7473 19.9967C10.7148 19.9933 10.6829 19.986 10.6521 19.9754C10.5916 19.954 10.5352 19.9187 10.4879 19.8691L10.4849 19.8662L7.81982 17.0416C12.1092 16.3088 15.4912 12.9169 16.2104 8.6228H21.5884V8.62284Z" fill="#04A550"/>
<path d="M18.3213 8.62253L10.9378 19.975C10.9071 19.9857 10.8751 19.9929 10.8427 19.9964C10.8111 20.0006 10.7787 20.0006 10.7471 19.9964C10.7147 19.9929 10.6828 19.9857 10.652 19.975L3.26855 8.62253L5.90588 3.27661H15.684L18.3213 8.62253Z" fill="#C2FFC2"/>
<path d="M18.3213 8.62256L10.9378 19.975C10.9071 19.9857 10.8751 19.993 10.8427 19.9964C10.8111 20.0006 10.7787 20.0006 10.7471 19.9964C10.7147 19.993 10.6828 19.9857 10.652 19.975L3.26855 8.62256H18.3213Z" fill="#29E088"/>
<path d="M18.3212 8.6228L10.9377 19.9753C10.907 19.986 10.875 19.9932 10.8426 19.9967C10.811 20.0009 10.7786 20.0009 10.747 19.9967C10.7146 19.9932 10.6826 19.986 10.6519 19.9753L8.63135 16.8688C12.5308 15.8711 15.5371 12.6421 16.2102 8.6228H18.3212Z" fill="#0CC166"/>
<path d="M13.5917 8.62253L10.8427 19.9964C10.8111 20.0007 10.7787 20.0007 10.7471 19.9964L7.99805 8.62253L8.97823 3.27661H12.6116L13.5917 8.62253Z" fill="#79FF79"/>
<path d="M13.5917 8.62256L10.8427 19.9964C10.8111 20.0007 10.7787 20.0007 10.7471 19.9964L7.99805 8.62256H13.5917Z" fill="#0CC166"/>
<path d="M10.2764 4.69117H4.85864C4.46805 4.69117 4.15137 4.37453 4.15137 3.98389C4.15137 3.59329 4.468 3.27661 4.85864 3.27661H10.2764C10.667 3.27661 10.9837 3.59325 10.9837 3.98389C10.9836 4.37449 10.667 4.69117 10.2764 4.69117Z" fill="#C2FFC2"/>
<path d="M8.97832 3.2771L8.71895 4.69111H5.2085L5.90591 3.2771H8.97832Z" fill="#EEFFEE"/>
<path d="M11.9706 15.3313L10.8428 19.9968C10.8112 20.0011 10.7788 20.0011 10.7473 19.9968L9.8916 16.4574C10.6308 16.1617 11.3278 15.7826 11.9706 15.3313Z" fill="#04A550"/>
<path d="M18.3212 8.62287H14.043C15.3495 8.36522 16.522 7.73566 17.4459 6.84888L18.3212 8.62287Z" fill="#79FF79"/>
<path d="M19.787 4.91661C19.939 4.81651 19.939 4.5942 19.787 4.49409C19.3948 4.23573 19.0225 3.93512 18.6768 3.59205C18.3311 3.24897 18.0282 2.8795 17.7678 2.49029C17.667 2.3395 17.443 2.3395 17.3421 2.49029C17.0818 2.8795 16.7789 3.24897 16.4332 3.59205C16.0874 3.93512 15.7152 4.23573 15.323 4.49409C15.171 4.5942 15.171 4.81651 15.323 4.91661C15.7152 5.17497 16.0875 5.47559 16.4332 5.81866C16.7788 6.16174 17.0818 6.53121 17.3421 6.92042C17.443 7.07121 17.667 7.07121 17.7678 6.92042C18.0282 6.53121 18.3311 6.16174 18.6768 5.81866C19.0225 5.47559 19.3948 5.17497 19.787 4.91661Z" fill="#29E088"/>
<path d="M19.7871 4.91632C19.395 5.17473 19.0228 5.47521 18.6769 5.81842C18.3311 6.16166 18.0283 6.53105 17.7679 6.92021C17.667 7.07079 17.4433 7.07079 17.3423 6.92021C17.082 6.53105 16.7792 6.16166 16.4333 5.81842C16.3883 5.77376 16.3426 5.72974 16.2964 5.68635C16.3574 5.69145 16.4192 5.69398 16.4815 5.69398C17.6683 5.69398 18.6358 4.7587 18.6756 3.59058C18.6763 3.59121 18.6763 3.59121 18.677 3.59184C19.0228 3.93509 19.395 4.23557 19.7872 4.49393C19.9389 4.59412 19.9389 4.81613 19.7871 4.91632Z" fill="#0CC166"/>
<path d="M20.1013 1.34026C20.1815 1.28743 20.1815 1.17012 20.1013 1.11728C19.8943 0.980913 19.6978 0.822278 19.5154 0.641169C19.3329 0.460059 19.173 0.265076 19.0356 0.0596777C18.9824 -0.0198926 18.8642 -0.0198926 18.8109 0.0596777C18.6735 0.265118 18.5136 0.460101 18.3312 0.641169C18.1487 0.822236 17.9522 0.980913 17.7452 1.11728C17.665 1.17012 17.665 1.28743 17.7452 1.34026C17.9522 1.47663 18.1487 1.63527 18.3312 1.81638C18.5136 1.99749 18.6735 2.19247 18.8109 2.39787C18.8642 2.47744 18.9824 2.47744 19.0356 2.39787C19.173 2.19243 19.3329 1.99745 19.5154 1.81638C19.6978 1.63531 19.8943 1.47659 20.1013 1.34026Z" fill="#79FF79"/>
<path d="M20.1013 1.34011C19.8943 1.47648 19.6978 1.63507 19.5153 1.81622C19.3327 1.99738 19.1729 2.19236 19.0355 2.39776C18.9822 2.47724 18.8641 2.47724 18.8108 2.39776C18.6734 2.19236 18.5136 1.99738 18.3311 1.81622C18.3073 1.79265 18.2832 1.76942 18.2588 1.74652C18.291 1.74922 18.3236 1.75057 18.3565 1.75057C18.9828 1.75057 19.4935 1.25691 19.5145 0.640381C19.5149 0.640718 19.5149 0.640718 19.5152 0.641055C19.6978 0.822207 19.8942 0.9808 20.1012 1.11717C20.1813 1.17009 20.1813 1.28727 20.1013 1.34011Z" fill="#29E088"/>
</svg>
